# xmcd
#
# Track frame offsets: 
#        182
#        16622
#        30030
#        40935
#        52340
#        68352
#        82047
#        92420
#        103370
#        116220
#        130885
#        143577
#        156225
#        168350
#        181952
#        195970
#        207050
#        219050
#        230637
#        242545
#
# Disc length: 3399 seconds
#
# Revision: 3
# Processed by: cddbd v1.5.2PL0 Copyright (c) Steve Scherf et al.
# Submitted via: ExactAudioCopy v0.99pb5
#
DISCID=fd0d4514
DTITLE=Various Artist - Songs From The Golden West - 80 County and Western Hits
DTITLE=Various Artist - CD 3
DYEAR=2007
DGENRE=Country
TTITLE0=Bobby Bare - Me and Bobby McGee
TTITLE1=Dave Dudley - Counterfeit cowboy
TTITLE2=Freddy Quinn - Tom Dooley
TTITLE3=Barbara Perry - I'll hold you closer than love
TTITLE4=Rick Pilgreen - If I had the chance
TTITLE5=Billy Grammer - The hour of separation
TTITLE6=Dave Dudley - Been around the horn
TTITLE7=Buddy Meredith - Lonely in person
TTITLE8=Ronnie Rogers - Dan D. Derby
TTITLE9=Jonny Hill - Detroit City
TTITLE10=Bobby Bare - Rosalie
TTITLE11=George Kent - Hardscuffle road
TTITLE12=Ferlin Husky - I could sing all night
TTITLE13=Rick Johnson - I've heard those very lines before
TTITLE14=Tom Overland - I love your lovely smile
TTITLE15=Freddy Quinn - Some broken hearts never mend
TTITLE16=George Kent - Hitting the bottle, missing you
TTITLE17=Dave Dudley - Sentimental journey
TTITLE18=Ferlin Husky - Money greases the wheels
TTITLE19=Bobby Bare - The year that Clayton Delaney died
EXTD=YEAR: 2007
EXTT0=
EXTT1=
EXTT2=
EXTT3=
EXTT4=
EXTT5=
EXTT6=
EXTT7=
EXTT8=
EXTT9=
EXTT10=
EXTT11=
EXTT12=
EXTT13=
EXTT14=
EXTT15=
EXTT16=
EXTT17=
EXTT18=
EXTT19=
PLAYORDER=
